<svg xmlns="http://www.w3.org/2000/svg" width="26.07px" height="32.634px" viewBox="0 0 26.07 32.634" transform="rotate(0) scale(1, 1)">
  <g id="download" transform="translate(-3.282)">
    <path id="Path_1" d="M16.317,32.634a.5.5,0,0,1-.5-.5V.5a.5.5,0,0,1,1,0V32.134A.5.5,0,0,1,16.317,32.634Z" fill="#ffffff" style="--darkreader-inline-fill: var(--darkreader-background-ffffff, #181a1b);" data-darkreader-inline-fill=""/>
    <path id="Path_2" d="M16.315,32.634h0a.5.5,0,0,1-.354-.146L3.428,19.951a.5.5,0,0,1,.707-.707L16.314,31.427,28.5,19.244a.5.5,0,1,1,.707.707L16.668,32.487A.5.5,0,0,1,16.315,32.634Z" fill="#ffffff" style="--darkreader-inline-fill: var(--darkreader-background-ffffff, #181a1b);" data-darkreader-inline-fill=""/>
  </g>
</svg>